<?xml version="1.0" encoding="UTF-8"?>
<svg id="Layer_2" data-name="Layer 2" xmlns="http://www.w3.org/2000/svg" viewBox="0 0 463.6 101.9">
  <defs>
    <style>
      .cls-1 {
        fill: #023047;
      }

      .cls-2 {
        fill: #feb306;
      }

      .cls-3 {
        fill: #ff8300;
      }
    </style>
  </defs>
  <g id="Layer_1-2" data-name="Layer 1">
    <path class="cls-1" d="m146.9,36.6c-2.6,0-4.8-.8-6.7-2.5-1.9-1.6-2.8-3.8-2.8-6.5s.9-4.9,2.8-6.5c1.9-1.6,4.1-2.5,6.7-2.5s4.8.8,6.7,2.5c1.9,1.6,2.8,3.8,2.8,6.5s-.9,4.9-2.8,6.5-4.1,2.5-6.7,2.5Z"/>
    <rect class="cls-1" x="139.1" y="43" width="15.1" height="58.9"/>
    <polygon class="cls-1" points="447.5 43 433.9 85.8 419.9 43 403.4 43 425 101.9 442.5 101.9 463.6 43 447.5 43"/>
    <path class="cls-1" d="m266,43.1c-4.5,0-8.5.8-12.3,2.4-1.4.6-2.7,1.3-3.9,2v-4.4h-15.1v58.7h15.1v-31.4c.2-2.6.9-4.9,2-6.9,1.4-2.6,3.3-4.5,5.8-5.9s5.3-2.1,8.4-2.1c2,0,3.9.3,5.6.9.7-4.2,1.4-8.4,2-12.5-2.4-.5-4.9-.8-7.6-.8Z"/>
    <path id="Path_6310" data-name="Path 6310" class="cls-2" d="m10.9,0L2,15.3h78.8l-20.2,35,8.8,15.3L107.3,0H10.9Z"/>
    <path id="Path_6311" data-name="Path 6311" class="cls-1" d="m69.5,71.4h0l-20.2-34.8h-17.5l37.7,65.3L117.5,18.8l-8.8-15.2-39.2,67.8h0Z"/>
    <path id="Path_6312" data-name="Path 6312" class="cls-3" d="m0,18.5l48.2,83.4h17.6L26.5,33.8h40.3l8.8-15.3H0Z"/>
    <path class="cls-1" d="m222,30.6c-2.6-3.9-6.2-6.9-10.8-8.9-4.6-2.1-9.8-3.1-15.8-3.1h-31v83.3h15.4v-31.4h15.2c6.6,0,12.1-1,16.7-3,4.6-2,8.1-4.9,10.5-8.8,2.4-3.8,3.6-8.6,3.6-14.1s-1.2-10.1-3.8-14Zm-15.5,24.7c-2.7,2-6.5,3.1-11.5,3.1h-15.2v-25.7h15.3c4.7,0,8.4,1.1,11.2,3.3s4.2,5.4,4.2,9.7-1.3,7.6-4,9.6Z"/>
    <path class="cls-1" d="m305.9,42.5c-18.3,0-30.7,14.4-30.7,29.7s13.2,29.7,30.7,29.7,30.6-14.2,30.6-29.7-12.3-29.7-30.6-29.7Zm-.1,46.8c-10.1,0-16.4-7.7-16.4-17.1s6.3-17.1,16.4-17.1,16.4,7.7,16.4,17.1c-.1,9.4-6.1,17.1-16.4,17.1Z"/>
    <path class="cls-1" d="m372.8,42.5c-18.3,0-30.7,14.4-30.7,29.7s13.2,29.7,30.7,29.7,30.6-14.2,30.6-29.7-12.3-29.7-30.6-29.7Zm-.1,46.8c-10.1,0-16.4-7.7-16.4-17.1s6.3-17.1,16.4-17.1,16.4,7.7,16.4,17.1c-.1,9.4-6.1,17.1-16.4,17.1Z"/>
  </g>
</svg>