<?xml version="1.0" encoding="UTF-8"?>
<svg xmlns="http://www.w3.org/2000/svg" xmlns:xlink="http://www.w3.org/1999/xlink" id="Layer_1" data-name="Layer 1" viewBox="0 0 5344.98 1545.02">
  <defs>
    <style>
      .cls-1 {
        fill: none;
      }

      .cls-2 {
        clip-path: url(#clippath);
      }

      .cls-3 {
        fill: #f9a11b;
      }

      .cls-4 {
        fill: #013047;
      }

      .cls-5 {
        fill: #f36c21;
      }
    </style>
    <clipPath id="clippath">
      <rect class="cls-1" x="61.23" y="201.58" width="5222.53" height="1141.87"></rect>
    </clipPath>
  </defs>
  <rect id="Rectangle_3266" data-name="Rectangle 3266" class="cls-4" x="1622.34" y="675.75" width="170.91" height="667.69"></rect>
  <g id="Group_2945" data-name="Group 2945">
    <g class="cls-2">
      <g id="Group_2944" data-name="Group 2944">
        <path id="Path_6303" data-name="Path 6303" class="cls-4" d="m1706.87,612.62c-27.99.51-55.15-9.5-76.12-28.04-40.93-38.47-42.91-102.84-4.44-143.77,1.44-1.53,2.91-3.02,4.44-4.46,43.86-37.39,108.38-37.39,152.24,0,40.92,38.48,42.91,102.85,4.44,143.78-1.46,1.53-2.94,3.01-4.44,4.44-20.97,18.55-48.13,28.55-76.12,28.05"></path>
        <path id="Path_6304" data-name="Path 6304" class="cls-4" d="m2563.51,543.9c-30.33-44.68-72.77-79.77-122.36-101.16-56.53-24.29-117.59-36.25-179.1-35.06h-350.55v934.72h173.62v-345.86h172.9c74.35,0,137.55-11.41,189.63-34.22,49-20.22,90.6-55.01,119.18-99.65,27.37-43.62,41.06-96.92,41.06-159.91s-14.8-114.84-44.4-158.91m-175.75,270.41c-31.04,23.15-74.5,34.72-130.36,34.72h-172.27v-290.42h173.59c53.43-.03,96.05,12.37,127.87,37.19,31.82,24.82,47.73,61.6,47.75,110.34,0,48.96-15.52,85.01-46.57,108.15"></path>
        <path id="Path_6306" data-name="Path 6306" class="cls-4" d="m3681.39,720.28c-54.16-30.96-115.69-46.69-178.07-45.53-47.47-.56-94.55,8.55-138.39,26.77-40.84,17.08-77.97,41.96-109.29,73.24-129.55,129.34-129.72,339.21-.38,468.77,20.75,20.79,44.18,38.72,69.65,53.34,54.24,30.95,115.83,46.67,178.27,45.51,47.52.56,94.65-8.55,138.54-26.77,40.81-17.05,77.88-41.92,109.12-73.22,129.48-129.59,129.4-339.61-.18-469.09-20.65-20.64-43.94-38.46-69.26-53m-17.62,390.48c-15.17,28.01-37.93,51.17-65.66,66.83-29.03,16.07-61.77,24.23-94.94,23.66v.04c-33.16.56-65.89-7.6-94.91-23.66-27.72-15.65-50.47-38.78-65.65-66.75-16.62-31.5-24.86-66.74-23.93-102.35-.9-35.63,7.27-70.9,23.74-102.51,15.02-28.05,37.74-51.22,65.49-66.78,59.67-31.27,130.89-31.27,190.56,0,27.75,15.55,50.48,38.72,65.49,66.77,16.49,31.6,24.66,66.87,23.76,102.51.89,35.57-7.36,70.77-23.95,102.25"></path>
        <path id="Path_6307" data-name="Path 6307" class="cls-4" d="m4440.36,720.28c-54.16-30.96-115.69-46.69-178.07-45.53-47.47-.55-94.55,8.55-138.39,26.77-40.85,17.08-77.99,41.96-109.32,73.24-129.55,129.36-129.69,339.25-.33,468.8,20.74,20.77,44.15,38.7,69.62,53.3,54.25,30.96,115.85,46.68,178.3,45.51h0c47.52.57,94.66-8.54,138.55-26.77,40.81-17.05,77.88-41.92,109.12-73.22,129.48-129.59,129.4-339.61-.18-469.09-20.65-20.64-43.94-38.46-69.26-53m-17.63,390.48c-15.17,28-37.92,51.17-65.65,66.84-29.03,16.08-61.78,24.24-94.96,23.66h-.08c-33.15.55-65.86-7.61-94.86-23.66-27.71-15.64-50.45-38.77-65.63-66.74-16.61-31.5-24.85-66.74-23.93-102.35-.91-35.63,7.27-70.91,23.76-102.51,15.02-28.05,37.74-51.22,65.5-66.77,59.67-31.27,130.89-31.27,190.56,0,27.74,15.56,50.45,38.73,65.45,66.77,16.49,31.6,24.67,66.87,23.76,102.51.9,35.57-7.33,70.77-23.92,102.24"></path>
        <path id="Path_6308" data-name="Path 6308" class="cls-4" d="m5102.89,674.73l-155.67,485.72-158.79-485.72h-185.62l245.04,667.66h196.94l238.97-667.68-180.87.02Z"></path>
        <path id="Path_6309" data-name="Path 6309" class="cls-3" d="m183.26,201.57l-99.05,171.47h883.35l-226.53,392.38,99,171.49,424.62-735.34H183.26Z"></path>
        <path id="Path_6310" data-name="Path 6310" class="cls-4" d="m840.03,1001.9l-.15.27-225.41-390.45h-197.06l422.46,731.72,538.03-931.86-98.48-170.61-439.41,760.94Z"></path>
        <path id="Path_6311" data-name="Path 6311" class="cls-5" d="m61.23,408.54l539.75,934.88h197.54l-440.69-763.41h452.01l99.01-171.47H61.23Z"></path>
        <path id="Path_6312" data-name="Path 6312" class="cls-4" d="m3056.89,675.81c-47.47-.55-94.55,8.56-138.39,26.77-16.01,6.72-31.48,14.65-46.29,23.73v-50.54h-170.97v667.68h170.97v-49.32h.05v-284.76c-.05-2.12,0-4.24.04-6.37.17-33.39,8.29-66.26,23.71-95.87,15-28.05,37.71-51.23,65.44-66.79,50.49-26.43,109.71-30.67,163.45-11.71l18.57-143.29c-28.36-6.81-57.48-10.01-86.64-9.51"></path>
      </g>
    </g>
  </g>
</svg>
