<svg xmlns="http://www.w3.org/2000/svg" viewBox="0 0 121 78" fill="none">
  <g clip-path="url(#clip0)">
    <path fill-rule="evenodd" clip-rule="evenodd" d="M17.5449 19.6455C25.5547 19.6455 29.7952 22.1263 31.6126 25.5905C31.6126 41.1458 31.6126 56.7011 31.6126 72.2564C28.5837 72.2564 19.1603 71.0495 17.5449 63.5177V19.6455Z" fill="#1C5298"></path>
    <path fill-rule="evenodd" clip-rule="evenodd" d="M24.59 0C28.4715 0 31.635 3.12894 31.635 7.01776C31.635 10.8842 28.4939 14.0355 24.59 14.0355C20.7085 14.0355 17.5449 10.9066 17.5449 7.01776C17.5449 3.12894 20.7085 0 24.59 0Z" fill="#1C5298"></path>
    <path fill-rule="evenodd" clip-rule="evenodd" d="M23.4013 45.5266L61.8125 18.1707C73.0757 10.9294 64.9312 9.76725 54.947 8.80622C44.8954 7.84519 32.9816 7.15235 34.2381 7.06295L65.5146 5.09619C74.9379 5.09619 80.9284 12.9409 72.7167 20.6738L25.3757 60.4785L0 37.9054L23.4013 45.5266Z" fill="#FDBC51"></path>
    <path d="M38.2539 56.1199C38.2539 55.3823 38.7924 54.8012 39.4655 54.8012C40.161 54.8012 40.6995 55.3823 40.6995 56.1199V58.4889C42.0457 56.3881 43.9752 54.6001 47.0041 54.6001C50.953 54.6001 54.8794 57.9078 54.8794 63.6517V63.7187C54.8794 69.4179 50.9978 72.7927 47.0041 72.7927C43.9528 72.7927 41.9559 71.027 40.6995 69.0826V76.6815C40.6995 77.419 40.1834 78.0001 39.4879 78.0001C38.7924 78.0001 38.2539 77.419 38.2539 76.6815V56.1199ZM52.3665 63.7634V63.6964C52.3665 59.5841 49.6965 56.9468 46.5554 56.9468C43.504 56.9468 40.5873 59.6735 40.5873 63.674V63.7411C40.5873 67.7864 43.4816 70.4907 46.5554 70.4907C49.7638 70.4683 52.3665 67.9651 52.3665 63.7634Z" fill="#1C5298"></path>
    <path d="M58.0859 56.1196C58.0859 55.4044 58.6244 54.8009 59.2975 54.8009C59.993 54.8009 60.5315 55.382 60.5315 56.1196V59.4049C61.7431 56.4995 64.1438 54.7339 66.208 54.7339C66.9484 54.7339 67.4195 55.315 67.4195 56.0525C67.4195 56.7677 66.9708 57.2594 66.3426 57.3711C63.1566 57.7734 60.5315 60.2989 60.5315 65.3499V71.2949C60.5315 72.0101 60.0155 72.6135 59.3199 72.6135C58.6244 72.6135 58.0859 72.0325 58.0859 71.2949V56.1196Z" fill="#1C5298"></path>
    <path d="M67.959 63.7858V63.7187C67.959 58.7795 71.5937 54.6001 76.5746 54.6001C81.5106 54.6001 85.1453 58.7124 85.1453 63.6517V63.7187C85.1453 68.658 81.4882 72.8374 76.5073 72.8374C71.5713 72.8374 67.959 68.725 67.959 63.7858ZM82.6325 63.7858V63.7187C82.6325 59.964 79.9849 56.9021 76.5073 56.9021C72.9399 56.9021 70.4719 59.9863 70.4719 63.6517V63.7187C70.4719 67.4735 73.0969 70.513 76.5522 70.513C80.142 70.513 82.6325 67.4735 82.6325 63.7858Z" fill="#1C5298"></path>
    <path d="M87.209 63.7858V63.7187C87.209 58.7795 90.8437 54.6001 95.8246 54.6001C100.761 54.6001 104.395 58.7124 104.395 63.6517V63.7187C104.395 68.658 100.738 72.8374 95.7573 72.8374C90.8213 72.8374 87.209 68.725 87.209 63.7858ZM101.882 63.7858V63.7187C101.882 59.964 99.2349 56.9021 95.7573 56.9021C92.1899 56.9021 89.7219 59.9863 89.7219 63.6517V63.7187C89.7219 67.4735 92.3469 70.513 95.8022 70.513C99.392 70.513 101.882 67.4735 101.882 63.7858Z" fill="#1C5298"></path>
    <path d="M113.282 72.7028H113.148C112.475 72.7028 112.026 72.2558 111.734 71.5853L105.542 56.7899C105.475 56.5441 105.385 56.3206 105.385 56.0747C105.385 55.4042 105.923 54.8008 106.619 54.8008C107.314 54.8008 107.673 55.2478 107.853 55.8065L113.17 69.4398L118.6 55.7395C118.757 55.2254 119.116 54.8008 119.744 54.8008C120.417 54.8008 120.956 55.3819 120.956 56.0747C120.956 56.3206 120.888 56.5441 120.821 56.7228L114.606 71.5853C114.382 72.2558 113.956 72.7028 113.282 72.7028Z" fill="#1C5298"></path>
  </g>
  <defs>
    <clipPath id="clip0">
      <rect width="121" height="78" fill="white"></rect>
    </clipPath>
  </defs>
</svg>
